<svg width="454" height="445" viewBox="0 0 454 445" fill="none" xmlns="http://www.w3.org/2000/svg">
<mask id="path-1-inside-1_2_750" fill="white">
<path fill-rule="evenodd" clip-rule="evenodd" d="M0 101V202H103H206V101V0H103H0V101ZM248 101V202H351H454V101V0H351H248V101ZM164.758 101.25L164.5 161.5H103H41.5L41.242 101.25L40.984 41H103H165.016L164.758 101.25ZM412.758 101.25L412.5 161.5H351H289.5L289.242 101.25L288.984 41H351H413.016L412.758 101.25ZM83 101V121L103.25 121.001H123.5V101.002V81.002L103.25 81.001L83 81V101ZM330.5 100.998V120.998L350.75 120.999L371 121V101V81L350.75 80.999H330.5V100.998ZM0 344V445H103H206V344V243H103H0V344ZM248 304V365H268.5H289V384.5V404H268.5H248V424.5V445H268.5H289V424.5V404H310H331V424.5V445H351H371V424.5V404H391.5H412V384V364H433H454V303.5V243H433.521H413.041L412.771 263.25L412.5 283.5L391.75 283.77L371 284.041V344.02V404H351H331V344.02V284.041L310.25 283.77L289.5 283.5L289.229 263.25L288.959 243H268.479H248V304ZM164.758 343.25L165.016 403H103.008H41V343.667C41 311.033 41.303 284.03 41.674 283.659C42.045 283.288 69.833 283.101 103.424 283.242L164.5 283.5L164.758 343.25ZM83 344V364L103.25 364.001H123.5V344.002V324.002L103.25 324.001L83 324V344ZM413 424.5V445H433.5H454V424.5V404H433.5H413V424.5Z"/>
</mask>
<path fill-rule="evenodd" clip-rule="evenodd" d="M0 101V202H103H206V101V0H103H0V101ZM248 101V202H351H454V101V0H351H248V101ZM164.758 101.25L164.5 161.5H103H41.5L41.242 101.25L40.984 41H103H165.016L164.758 101.25ZM412.758 101.25L412.5 161.5H351H289.5L289.242 101.25L288.984 41H351H413.016L412.758 101.25ZM83 101V121L103.25 121.001H123.5V101.002V81.002L103.25 81.001L83 81V101ZM330.5 100.998V120.998L350.75 120.999L371 121V101V81L350.75 80.999H330.5V100.998ZM0 344V445H103H206V344V243H103H0V344ZM248 304V365H268.5H289V384.5V404H268.5H248V424.5V445H268.5H289V424.5V404H310H331V424.5V445H351H371V424.5V404H391.5H412V384V364H433H454V303.5V243H433.521H413.041L412.771 263.25L412.5 283.5L391.75 283.77L371 284.041V344.02V404H351H331V344.02V284.041L310.25 283.77L289.5 283.5L289.229 263.25L288.959 243H268.479H248V304ZM164.758 343.25L165.016 403H103.008H41V343.667C41 311.033 41.303 284.03 41.674 283.659C42.045 283.288 69.833 283.101 103.424 283.242L164.5 283.5L164.758 343.25ZM83 344V364L103.25 364.001H123.5V344.002V324.002L103.25 324.001L83 324V344ZM413 424.5V445H433.5H454V424.5V404H433.5H413V424.5Z" fill="#E1E1E1"/>
<path d="M0 202H-1V203H0V202ZM206 202V203H207V202H206ZM206 0H207V-1H206V0ZM0 0V-1H-1V0H0ZM248 202H247V203H248V202ZM454 202V203H455V202H454ZM454 0H455V-1H454V0ZM248 0V-1H247V0H248ZM164.758 101.25L163.758 101.246L163.758 101.246L164.758 101.25ZM164.5 161.5V162.5H165.496L165.5 161.504L164.5 161.5ZM41.5 161.5L40.5 161.504L40.5043 162.5H41.5V161.5ZM41.242 101.25L40.242 101.254L40.242 101.254L41.242 101.25ZM40.984 41V40H39.9797L39.984 41.0043L40.984 41ZM165.016 41L166.016 41.0043L166.02 40H165.016V41ZM412.5 161.5V162.5H413.496L413.5 161.504L412.5 161.5ZM289.5 161.5L288.5 161.504L288.504 162.5H289.5V161.5ZM288.984 41V40H287.98L287.984 41.0043L288.984 41ZM413.016 41L414.016 41.0043L414.02 40H413.016V41ZM83 121H82V122L83 122L83 121ZM103.25 121.001L103.25 122.001H103.25V121.001ZM123.5 121.001V122.001H124.5V121.001H123.5ZM123.5 81.002H124.5V80.002L123.5 80.002L123.5 81.002ZM83 81L83 80L82 80V81H83ZM330.5 120.998H329.5V121.998L330.5 121.998L330.5 120.998ZM350.75 120.999L350.75 119.999L350.75 119.999L350.75 120.999ZM371 121L371 122L372 122V121H371ZM371 81H372V80L371 80L371 81ZM350.75 80.999L350.75 79.999H350.75V80.999ZM330.5 80.999V79.999H329.5V80.999H330.5ZM0 445H-1V446H0V445ZM206 445V446H207V445H206ZM206 243H207V242H206V243ZM0 243V242H-1V243H0ZM248 365H247V366H248V365ZM289 365H290V364H289V365ZM248 404V403H247V404H248ZM248 445H247V446H248V445ZM289 445V446H290V445H289ZM331 445H330V446H331V445ZM371 445V446H372V445H371ZM412 404V405H413V404H412ZM412 364V363H411V364H412ZM454 364V365H455V364H454ZM454 243H455V242H454V243ZM413.041 243V242H412.054L412.041 242.987L413.041 243ZM412.771 263.25L413.771 263.263L413.771 263.263L412.771 263.25ZM412.5 283.5L412.513 284.5L413.487 284.487L413.5 283.513L412.5 283.5ZM391.75 283.77L391.737 282.77L391.737 282.77L391.75 283.77ZM371 284.041L370.987 283.041L370 283.054V284.041H371ZM331 284.041H332V283.054L331.013 283.041L331 284.041ZM310.25 283.77L310.263 282.77L310.263 282.77L310.25 283.77ZM289.5 283.5L288.5 283.513L288.513 284.487L289.487 284.5L289.5 283.5ZM289.229 263.25L288.229 263.263L288.229 263.263L289.229 263.25ZM288.959 243L289.959 242.987L289.946 242H288.959V243ZM248 243V242H247V243H248ZM164.758 343.25L163.758 343.254L163.758 343.254L164.758 343.25ZM165.016 403V404H166.02L166.016 402.996L165.016 403ZM41 403H40V404H41V403ZM103.424 283.242L103.428 282.242L103.428 282.242L103.424 283.242ZM164.5 283.5L165.5 283.496L165.496 282.504L164.504 282.5L164.5 283.5ZM83 364H82V365L83 365L83 364ZM103.25 364.001L103.25 365.001H103.25V364.001ZM123.5 364.001V365.001H124.5V364.001H123.5ZM123.5 324.002H124.5V323.002L123.5 323.002L123.5 324.002ZM83 324L83 323L82 323V324H83ZM413 445H412V446H413V445ZM454 445V446H455V445H454ZM454 404H455V403H454V404ZM413 404V403H412V404H413ZM-1 101V202H1V101H-1ZM0 203H103V201H0V203ZM103 203H206V201H103V203ZM207 202V101H205V202H207ZM207 101V0H205V101H207ZM206 -1H103V1H206V-1ZM103 -1H0V1H103V-1ZM-1 0V101H1V0H-1ZM247 101V202H249V101H247ZM248 203H351V201H248V203ZM351 203H454V201H351V203ZM455 202V101H453V202H455ZM455 101V0H453V101H455ZM454 -1H351V1H454V-1ZM351 -1H248V1H351V-1ZM247 0V101H249V0H247ZM163.758 101.246L163.5 161.496L165.5 161.504L165.758 101.254L163.758 101.246ZM164.5 160.5H103V162.5H164.5V160.5ZM103 160.5H41.5V162.5H103V160.5ZM42.5 161.496L42.242 101.246L40.242 101.254L40.5 161.504L42.5 161.496ZM42.242 101.246L41.984 40.9957L39.984 41.0043L40.242 101.254L42.242 101.246ZM40.984 42H103V40H40.984V42ZM103 42H165.016V40H103V42ZM164.016 40.9957L163.758 101.246L165.758 101.254L166.016 41.0043L164.016 40.9957ZM411.758 101.246L411.5 161.496L413.5 161.504L413.758 101.254L411.758 101.246ZM412.5 160.5H351V162.5H412.5V160.5ZM351 160.5H289.5V162.5H351V160.5ZM290.5 161.496L290.242 101.246L288.242 101.254L288.5 161.504L290.5 161.496ZM290.242 101.246L289.984 40.9957L287.984 41.0043L288.242 101.254L290.242 101.246ZM288.984 42H351V40H288.984V42ZM351 42H413.016V40H351V42ZM412.016 40.9957L411.758 101.246L413.758 101.254L414.016 41.0043L412.016 40.9957ZM82 101V121H84V101H82ZM83 122L103.25 122.001L103.25 120.001L83 120L83 122ZM103.25 122.001H123.5V120.001H103.25V122.001ZM124.5 121.001V101.002H122.5V121.001H124.5ZM124.5 101.002V81.002H122.5V101.002H124.5ZM123.5 80.002L103.25 80.001L103.25 82.001L123.5 82.002L123.5 80.002ZM103.25 80.001L83 80L83 82L103.25 82.001L103.25 80.001ZM82 81V101H84V81H82ZM329.5 100.998V120.998H331.5V100.998H329.5ZM330.5 121.998L350.75 121.999L350.75 119.999L330.5 119.998L330.5 121.998ZM350.75 121.999L371 122L371 120L350.75 119.999L350.75 121.999ZM372 121V101H370V121H372ZM372 101V81H370V101H372ZM371 80L350.75 79.999L350.75 81.999L371 82L371 80ZM350.75 79.999H330.5V81.999H350.75V79.999ZM329.5 80.999V100.998H331.5V80.999H329.5ZM-1 344V445H1V344H-1ZM0 446H103V444H0V446ZM103 446H206V444H103V446ZM207 445V344H205V445H207ZM207 344V243H205V344H207ZM206 242H103V244H206V242ZM103 242H0V244H103V242ZM-1 243V344H1V243H-1ZM247 304V365H249V304H247ZM248 366H268.5V364H248V366ZM268.5 366H289V364H268.5V366ZM288 365V384.5H290V365H288ZM288 384.5V404H290V384.5H288ZM289 403H268.5V405H289V403ZM268.5 403H248V405H268.5V403ZM247 404V424.5H249V404H247ZM247 424.5V445H249V424.5H247ZM248 446H268.5V444H248V446ZM268.5 446H289V444H268.5V446ZM290 445V424.5H288V445H290ZM290 424.5V404H288V424.5H290ZM289 405H310V403H289V405ZM310 405H331V403H310V405ZM330 404V424.5H332V404H330ZM330 424.5V445H332V424.5H330ZM331 446H351V444H331V446ZM351 446H371V444H351V446ZM372 445V424.5H370V445H372ZM372 424.5V404H370V424.5H372ZM371 405H391.5V403H371V405ZM391.5 405H412V403H391.5V405ZM413 404V384H411V404H413ZM413 384V364H411V384H413ZM412 365H433V363H412V365ZM433 365H454V363H433V365ZM455 364V303.5H453V364H455ZM455 303.5V243H453V303.5H455ZM454 242H433.521V244H454V242ZM433.521 242H413.041V244H433.521V242ZM412.041 242.987L411.771 263.237L413.771 263.263L414.041 243.013L412.041 242.987ZM411.771 263.237L411.5 283.487L413.5 283.513L413.771 263.263L411.771 263.237ZM412.487 282.5L391.737 282.77L391.763 284.77L412.513 284.5L412.487 282.5ZM391.737 282.77L370.987 283.041L371.013 285.041L391.763 284.77L391.737 282.77ZM370 284.041V344.02H372V284.041H370ZM370 344.02V404H372V344.02H370ZM371 403H351V405H371V403ZM351 403H331V405H351V403ZM332 404V344.02H330V404H332ZM332 344.02V284.041H330V344.02H332ZM331.013 283.041L310.263 282.77L310.237 284.77L330.987 285.041L331.013 283.041ZM310.263 282.77L289.513 282.5L289.487 284.5L310.237 284.77L310.263 282.77ZM290.5 283.487L290.229 263.237L288.229 263.263L288.5 283.513L290.5 283.487ZM290.229 263.237L289.959 242.987L287.959 243.013L288.229 263.263L290.229 263.237ZM288.959 242H268.479V244H288.959V242ZM268.479 242H248V244H268.479V242ZM247 243V304H249V243H247ZM163.758 343.254L164.016 403.004L166.016 402.996L165.758 343.246L163.758 343.254ZM165.016 402H103.008V404H165.016V402ZM103.008 402H41V404H103.008V402ZM42 403V343.667H40V403H42ZM42 343.667C42 327.353 42.0757 312.447 42.1978 301.576C42.2589 296.139 42.3314 291.715 42.4118 288.629C42.4521 287.084 42.4941 285.882 42.5372 285.058C42.5588 284.643 42.5801 284.337 42.6003 284.135C42.6107 284.031 42.619 283.974 42.6233 283.95C42.6258 283.936 42.6233 283.955 42.6124 283.99C42.607 284.008 42.594 284.048 42.5701 284.098C42.5519 284.137 42.4961 284.251 42.3811 284.366L40.9669 282.952C40.8461 283.073 40.7846 283.196 40.7606 283.247C40.7309 283.31 40.7121 283.365 40.7009 283.402C40.6785 283.474 40.6645 283.543 40.6556 283.592C40.637 283.694 40.6225 283.814 40.6103 283.936C40.5853 284.186 40.562 284.53 40.5399 284.953C40.4954 285.804 40.4529 287.027 40.4125 288.577C40.3317 291.678 40.259 296.113 40.1979 301.553C40.0758 312.434 40 327.347 40 343.667H42ZM42.3811 284.366C42.2627 284.485 42.1448 284.541 42.1066 284.558C42.0553 284.582 42.0149 284.595 41.9976 284.6C41.9628 284.61 41.9451 284.613 41.96 284.61C41.9858 284.605 42.0458 284.597 42.1527 284.587C42.3614 284.568 42.6769 284.548 43.1029 284.528C43.9508 284.488 45.1877 284.451 46.7764 284.417C49.9514 284.35 54.5038 284.296 60.0982 284.258C71.2859 284.183 86.6268 284.172 103.42 284.242L103.428 282.242C86.6302 282.172 71.2816 282.183 60.0848 282.259C54.487 282.296 49.9234 282.35 46.734 282.418C45.1406 282.452 43.8833 282.489 43.0093 282.53C42.5743 282.55 42.222 282.572 41.9664 282.596C41.8413 282.608 41.7201 282.622 41.6169 282.64C41.5673 282.648 41.4982 282.662 41.4251 282.684C41.3887 282.694 41.3326 282.713 41.2689 282.742C41.2181 282.766 41.0911 282.828 40.9669 282.952L42.3811 284.366ZM103.42 284.242L164.496 284.5L164.504 282.5L103.428 282.242L103.42 284.242ZM163.5 283.504L163.758 343.254L165.758 343.246L165.5 283.496L163.5 283.504ZM82 344V364H84V344H82ZM83 365L103.25 365.001L103.25 363.001L83 363L83 365ZM103.25 365.001H123.5V363.001H103.25V365.001ZM124.5 364.001V344.002H122.5V364.001H124.5ZM124.5 344.002V324.002H122.5V344.002H124.5ZM123.5 323.002L103.25 323.001L103.25 325.001L123.5 325.002L123.5 323.002ZM103.25 323.001L83 323L83 325L103.25 325.001L103.25 323.001ZM82 324V344H84V324H82ZM412 424.5V445H414V424.5H412ZM413 446H433.5V444H413V446ZM433.5 446H454V444H433.5V446ZM455 445V424.5H453V445H455ZM455 424.5V404H453V424.5H455ZM454 403H433.5V405H454V403ZM433.5 403H413V405H433.5V403ZM412 404V424.5H414V404H412Z" fill="#E1E1E1" mask="url(#path-1-inside-1_2_750)"/>
</svg>
